<svg xmlns="http://www.w3.org/2000/svg" viewBox="0 0 512 512" style="width:256px;height:256px;opacity:1" xml:space="preserve"><path d="M256 0C114.612 0 0 114.612 0 256s114.612 256 256 256 256-114.612 256-256S397.388 0 256 0zm-5.331 88.462c26.504 0 47.998 21.482 47.998 48.01 0 26.496-21.494 47.994-47.998 47.994-26.513 0-48.006-21.498-48.006-47.994-.001-26.528 21.493-48.01 48.006-48.01zM315.554 428a6.044 6.044 0 0 1-6.048 6.044h-103.3a6.04 6.04 0 0 1-6.044-6.044v-26.372a6.047 6.047 0 0 1 6.044-6.052h12.808c6.678 0 12.096-5.418 12.096-12.095V277.72s-26.612 2.61-35.55 2.98c-8.937.363-20.452-13.964 3.549-25.96l82.484-45.836a6.31 6.31 0 0 1 6.225.164 6.346 6.346 0 0 1 3.067 5.434v168.979c0 6.677 5.418 12.095 12.091 12.095h6.529a6.05 6.05 0 0 1 6.048 6.052V428z" style="fill:#2971a1"/></svg>