<svg width="655" height="822" fill="none" xmlns="http://www.w3.org/2000/svg"><path d="M2.514 263.107v332.831L394.61 819.502V710.219l-135.532-75.53V521.801l-128.282-73.634V337.261L2.514 263.107Z" fill="#377BBA" stroke="#000" stroke-width="3.076" stroke-miterlimit="10" stroke-linejoin="round"/><path d="m2.514 263.107 128.282-77.719 128.282 77.719-128.282 74.154L2.514 263.107Z" fill="#B25A2C" stroke="#000" stroke-width="3.076" stroke-miterlimit="10" stroke-linejoin="round"/><path d="M130.796 337.261v110.906L259.078 372.6V263.107l-128.282 74.154Z" fill="#fff" stroke="#000" stroke-width="3.076" stroke-miterlimit="10" stroke-linejoin="round"/><path d="m130.796 448.167 128.282 73.35 135.532-73.35L259.078 372.6l-128.282 75.567Z" fill="#D5E366" stroke="#000" stroke-width="3.076" stroke-miterlimit="10" stroke-linejoin="round"/><path d="M259.078 521.517v113.626l135.532-75.959V448.167l-135.532 73.35Z" fill="#A14D53" stroke="#000" stroke-width="3.076" stroke-miterlimit="10" stroke-linejoin="round"/><path d="m259.078 635.143 135.532 74.778 127.75-74.778-127.75-76.541-135.532 76.541Z" fill="#A9302F" stroke="#000" stroke-width="3.076" stroke-miterlimit="10" stroke-linejoin="round"/><path d="m394.61 710.219.3 109.283 127.45-74.47V635.143l-127.75 75.076Z" fill="#EAB83F" stroke="#000" stroke-width="3.076" stroke-miterlimit="10" stroke-linejoin="round"/><path d="m130.796 185.388 128.282 77.719 135.532-77.719-135.532-73.776-128.282 73.776Z" fill="#3F863A" stroke="#000" stroke-width="3.076" stroke-miterlimit="10" stroke-linejoin="round"/><path d="M259.078 263.107V372.6l131.642-74.515 3.89-112.697-135.532 77.719Z" fill="#44A0E3" stroke="#000" stroke-width="3.076" stroke-miterlimit="10" stroke-linejoin="round"/><path d="m259.078 372.6 135.532 74.459L522.36 372.6l-131.64-74.793L259.078 372.6Z" fill="#000" stroke="#000" stroke-width="3.076" stroke-miterlimit="10" stroke-linejoin="round"/><path d="M394.61 447.059v111.543l127.75-75.123V372.6l-127.75 74.459Z" fill="#584063" stroke="#000" stroke-width="3.076" stroke-miterlimit="10" stroke-linejoin="round"/><path d="m394.61 558.602 127.75 75.66 131-75.66-131-75.02-127.75 75.02Z" fill="#836027" stroke="#000" stroke-width="3.076" stroke-miterlimit="10" stroke-linejoin="round"/><path d="M130.796 75.329v110.059l128.282-73.776V1.591L130.796 75.329Z" fill="#377BBA" stroke="#000" stroke-width="3.076" stroke-miterlimit="10" stroke-linejoin="round"/><path d="M259.078 1.591v110.021l135.532 73.776-3.89 112.419L522.36 372.6v110.982l131 75.02V227.431L259.078 1.591Z" fill="#EAB83F" stroke="#000" stroke-width="3.076" stroke-miterlimit="10" stroke-linejoin="round"/></svg>